<?xml version="1.0" standalone="no"?>
<!DOCTYPE svg PUBLIC "-//W3C//DTD SVG 20010904//EN"
 "http://www.w3.org/TR/2001/REC-SVG-20010904/DTD/svg10.dtd">
<svg version="1.0" xmlns="http://www.w3.org/2000/svg"
 width="2663.000000pt" height="1329.000000pt" viewBox="0 0 2663.000000 1329.000000"
 preserveAspectRatio="xMidYMid meet">

<g transform="translate(0.000000,1329.000000) scale(0.100000,-0.100000)"
fill="#000000" stroke="none">
<path d="M0 6645 l0 -6645 13315 0 13315 0 0 6645 0 6645 -13315 0 -13315 0 0
-6645z m22007 5700 c506 -63 927 -218 1333 -490 377 -253 688 -578 915 -957
70 -117 193 -364 200 -404 5 -25 -3 -41 -67 -119 -40 -49 -77 -89 -81 -90 -5
0 -28 48 -51 106 -185 460 -538 899 -975 1211 -94 67 -132 78 -190 54 -56 -22
-87 -13 -164 49 -130 105 -212 127 -462 128 -213 1 -309 -19 -577 -116 -131
-48 -134 -50 -164 -109 -30 -59 -32 -57 69 -89 61 -20 72 -27 113 -80 51 -66
92 -93 128 -83 25 6 98 77 130 127 10 15 24 27 30 27 15 0 53 -74 62 -118 13
-65 -33 -135 -109 -167 -51 -21 -95 -7 -157 51 -64 60 -111 79 -158 63 -21 -7
-107 -58 -192 -114 -85 -55 -174 -113 -197 -128 -68 -43 -97 -90 -99 -159 -1
-47 -6 -64 -25 -84 -32 -35 -48 -42 -143 -68 -155 -43 -176 -66 -176 -194 0
-65 4 -85 23 -112 32 -49 89 -74 173 -78 91 -5 113 7 195 99 187 211 250 254
379 254 98 0 166 -33 265 -126 62 -59 77 -69 109 -69 22 0 36 5 36 13 0 7 -41
63 -91 125 -51 64 -88 119 -85 127 3 8 14 18 25 24 17 10 38 -5 163 -111 235
-201 201 -180 287 -176 60 3 91 10 143 35 62 29 70 36 92 85 56 122 161 198
280 201 65 2 66 1 51 -54 -6 -25 -2 -29 72 -65 62 -31 81 -46 94 -74 9 -19 15
-39 13 -45 -3 -6 -72 -10 -187 -11 -169 0 -186 -2 -242 -25 -80 -32 -104 -71
-86 -138 11 -44 69 -138 129 -209 l28 -33 74 29 c41 17 78 27 81 24 4 -4 -2
-67 -13 -140 l-20 -133 119 -177 c66 -97 148 -222 183 -276 l63 -100 -29 -23
c-35 -28 -63 -38 -74 -26 -5 4 -52 96 -105 203 -116 233 -164 298 -280 379
-164 115 -343 153 -544 115 -103 -20 -190 -14 -255 17 -61 28 -130 106 -156
177 -12 31 -32 73 -45 93 l-23 36 -88 -19 c-331 -68 -487 -98 -512 -98 -30 0
-138 -40 -178 -66 -13 -9 -40 -40 -59 -70 -44 -66 -146 -193 -173 -216 -11 -9
-49 -39 -85 -67 -127 -100 -168 -205 -169 -434 0 -229 39 -306 272 -539 126
-125 183 -158 270 -158 68 0 168 27 276 75 63 28 154 44 154 27 0 -6 15 -27
34 -46 39 -42 77 -46 166 -20 51 15 55 15 67 -3 8 -10 13 -33 11 -52 l-3 -35
-145 -47 c-80 -26 -154 -50 -165 -52 -11 -3 -47 -12 -80 -22 -33 -9 -73 -20
-90 -25 -46 -12 -275 -69 -320 -80 -22 -5 -60 -13 -85 -19 -129 -30 -414 -76
-590 -95 -303 -33 -501 -40 -720 -24 l-205 15 -65 64 c-46 46 -111 91 -225
158 -88 52 -162 96 -165 97 -3 2 -12 -1 -20 -6 -11 -7 -8 -26 19 -105 18 -53
30 -99 27 -102 -8 -8 -193 87 -214 111 -11 11 -23 37 -27 56 -4 19 -11 53 -16
75 -76 339 -89 765 -33 1110 18 112 29 163 60 290 36 143 44 163 88 227 22 32
37 60 34 63 -3 4 -16 -9 -29 -27 -13 -18 -26 -35 -29 -38 -27 -25 -172 -266
-221 -368 -85 -178 -145 -364 -174 -542 -27 -171 -17 -434 21 -546 21 -61 80
-167 123 -220 120 -148 354 -278 616 -343 234 -57 408 -76 730 -76 249 0 444
11 620 36 359 50 551 86 865 166 355 90 855 263 1138 394 35 16 65 29 68 29
11 0 304 145 414 205 1034 562 1777 1344 2049 2153 22 68 41 130 41 138 0 22
20 16 29 -9 5 -13 17 -55 25 -93 9 -38 21 -85 26 -104 5 -19 15 -97 22 -172
12 -138 2 -333 -22 -428 -5 -19 -16 -64 -25 -100 -59 -233 -197 -497 -377
-718 -290 -356 -876 -821 -1451 -1149 -161 -92 -553 -293 -572 -293 -2 0 -36
-15 -77 -34 -188 -86 -501 -202 -773 -285 -55 -17 -113 -35 -130 -41 -81 -25
-426 -108 -545 -131 -162 -30 -223 -41 -285 -50 -38 -6 -97 -15 -130 -20 -432
-66 -1099 -81 -1485 -34 -832 102 -1357 419 -1524 920 -45 134 -59 241 -53
410 6 171 28 293 84 455 191 560 650 1142 1438 1826 131 113 527 422 636 495
184 124 213 141 424 254 130 69 333 145 525 198 182 49 253 64 485 96 105 15
513 12 642 -4z m-9497 -1977 c0 -1894 -3 -2062 -41 -2323 -149 -1042 -764
-1623 -1894 -1789 -126 -19 -455 -46 -557 -46 l-78 0 0 795 0 794 33 5 c127
21 163 29 218 47 234 77 418 248 490 456 56 162 52 27 56 2046 l4 1857 884 0
885 0 0 -1842z m4637 -130 c-3 -2161 0 -2047 -62 -2354 -169 -839 -664 -1344
-1525 -1559 -253 -63 -457 -90 -846 -111 l-121 -6 -6 272 c-4 150 -7 508 -7
796 l0 523 48 6 c413 57 673 286 737 651 13 75 15 334 15 1920 l0 1834 885 0
886 0 -4 -1972z m-11147 1927 c527 -79 959 -270 1254 -554 197 -190 309 -381
373 -636 25 -102 27 -125 28 -315 0 -161 -4 -223 -18 -290 -60 -281 -188 -525
-372 -706 -149 -147 -320 -247 -553 -324 l-117 -38 45 -11 c226 -57 545 -196
720 -312 110 -73 296 -253 358 -346 149 -221 215 -453 216 -748 0 -242 -37
-403 -137 -599 -219 -429 -738 -766 -1364 -886 -283 -54 -265 -53 -1360 -57
l-1023 -4 0 721 0 720 843 0 c808 0 847 1 921 20 101 26 168 63 223 125 73 80
87 121 88 250 0 105 -2 114 -33 177 -38 79 -92 130 -178 170 -120 56 -142 57
-1043 58 l-824 0 6 618 c4 339 11 633 16 652 5 19 9 27 10 18 2 -33 32 -19 49
22 9 22 23 40 30 40 7 0 11 4 7 9 -3 5 5 11 17 13 13 2 21 7 20 12 -2 5 2 12
9 17 15 9 -7 15 -93 24 -32 4 -58 11 -58 16 0 5 285 9 723 9 582 0 735 3 788
14 151 32 240 111 274 243 26 98 15 223 -26 304 -26 51 -101 115 -164 138 -82
31 -195 40 -493 42 -149 1 -275 5 -278 10 -3 5 16 9 43 10 35 1 41 3 24 8 -24
6 -24 7 12 34 20 15 39 27 42 27 4 0 18 9 32 20 22 17 23 20 7 20 -18 0 -18 2
2 18 12 9 30 32 40 50 10 17 25 34 34 37 8 3 25 23 38 46 13 22 31 43 40 46 9
3 27 18 40 32 13 14 37 41 53 58 16 18 29 36 29 41 0 4 17 24 38 45 20 20 48
50 62 67 14 16 31 30 38 30 6 0 12 5 12 11 0 6 16 26 35 45 19 18 43 46 53 61
20 32 58 74 158 176 39 40 79 87 89 105 11 18 27 35 37 38 9 3 20 14 23 25 4
10 13 19 20 19 8 0 17 11 21 25 3 14 12 25 19 25 7 0 21 12 30 28 10 15 36 45
57 67 61 62 68 71 68 84 0 7 7 10 19 6 21 -6 51 3 51 16 0 5 -13 9 -28 9 -15
0 -32 4 -37 9 -8 8 -151 35 -340 65 -16 2 13 2 65 0 52 -3 138 -11 190 -19z
m127 -71 c-3 -3 -12 -4 -19 -1 -8 3 -5 6 6 6 11 1 17 -2 13 -5z m-2267 -3704
l0 -2050 -790 0 -790 0 0 743 c0 408 3 752 6 764 4 13 10 20 15 17 5 -3 10 12
10 33 l2 38 6 -35 6 -35 12 30 c6 17 15 40 18 53 5 17 12 21 26 17 10 -4 19
-3 19 2 0 8 13 24 83 106 69 81 85 97 96 97 6 0 11 5 11 10 0 6 10 21 23 34
12 12 38 43 57 69 19 26 42 49 50 52 9 3 24 21 34 40 11 19 24 35 30 35 6 1
25 19 41 40 17 21 36 39 43 40 6 0 12 7 12 15 0 8 4 15 9 15 6 0 20 18 32 40
12 22 31 42 40 45 10 3 21 15 24 26 4 10 13 19 20 19 8 0 17 11 21 25 3 14 12
25 19 25 7 0 21 12 30 28 10 15 34 43 54 63 20 20 52 55 71 78 68 81 87 101
99 101 6 0 11 5 11 10 0 6 10 21 23 34 12 12 34 38 48 57 49 64 198 219 210
219 5 0 9 7 9 15 0 8 4 15 9 15 6 0 20 18 32 40 12 22 30 42 38 45 9 3 26 23
39 45 24 43 42 52 42 21 0 -11 4 -22 9 -25 5 -3 9 0 8 7 0 6 1 30 3 52 2 39 3
39 9 10 6 -28 7 -27 14 19 4 27 7 62 7 78 0 16 4 27 9 24 5 -3 12 111 16 262
4 147 8 296 10 332 1 36 3 98 4 138 0 39 3 72 6 72 3 0 5 -922 5 -2050z
m20820 852 c0 -55 -23 -286 -34 -347 -49 -265 -65 -326 -132 -524 -181 -530
-525 -1010 -989 -1382 -330 -263 -780 -476 -1205 -568 -239 -52 -287 -56 -645
-56 -279 0 -359 3 -445 18 -116 19 -281 54 -320 67 -14 4 -61 18 -105 30 -123
35 -326 116 -477 192 -273 137 -515 308 -741 528 -130 125 -315 335 -305 345
2 3 57 -1 121 -9 l117 -13 67 -74 c149 -161 175 -178 250 -164 77 14 107 54
119 153 l7 62 89 0 c290 0 797 49 1128 109 30 5 82 15 115 21 100 18 406 89
520 120 123 34 148 40 154 35 5 -2 11 -24 13 -48 3 -26 18 -62 35 -88 83 -121
154 -307 174 -454 6 -50 13 -96 15 -102 5 -18 119 -17 207 3 127 28 248 101
387 231 155 145 151 138 154 223 3 92 21 128 119 236 138 154 161 207 152 347
-11 162 -16 155 138 239 409 224 801 496 1162 809 55 47 108 96 119 107 27 31
36 19 36 -46z m-15869 -1266 c279 -92 603 -160 821 -174 l113 -7 3 -788 2
-788 -62 6 c-365 35 -564 66 -822 125 -213 50 -518 149 -549 180 -5 4 3 57 17
116 29 123 130 557 237 1024 59 260 86 350 104 350 1 0 62 -20 136 -44z m4538
35 c29 -16 307 -98 441 -130 167 -41 338 -69 457 -76 54 -4 108 -8 121 -11
l22 -4 0 -786 0 -786 -27 6 c-16 2 -64 8 -108 11 -399 31 -909 138 -1200 253
-90 35 -100 42 -97 62 2 13 40 179 84 369 44 190 117 510 163 710 89 391 95
408 144 382z m1191 -2691 c0 -203 0 -373 0 -377 0 -5 -38 -11 -85 -15 -46 -3
-107 -14 -135 -23 -120 -40 -118 -142 3 -195 56 -25 246 -72 442 -109 551
-106 857 -270 1014 -544 147 -257 133 -637 -33 -922 -52 -89 -206 -245 -310
-315 -186 -124 -453 -210 -702 -227 l-94 -6 0 390 0 390 74 7 c160 14 236 58
236 135 0 92 -75 120 -615 231 -258 53 -436 105 -546 161 -202 101 -351 255
-425 437 -51 128 -59 175 -58 372 0 173 2 191 28 275 67 217 189 368 405 499
197 119 488 202 724 205 l77 1 0 -370z m305 360 c299 -29 624 -115 837 -222
l58 -28 -21 -53 c-43 -110 -262 -652 -265 -655 -1 -2 -58 19 -127 47 -151 61
-351 115 -506 136 -64 9 -131 18 -148 21 l-33 5 0 379 0 380 53 0 c28 0 97 -5
152 -10z m-9421 -348 c71 -163 196 -448 277 -632 188 -430 856 -1952 880
-2007 l18 -43 -487 0 -487 0 -82 203 c-45 111 -168 414 -273 672 -106 259
-234 574 -285 700 -51 127 -114 282 -140 345 -44 107 -412 1020 -422 1048 -4
9 87 12 433 12 l439 -1 129 -297z m2296 -1192 l0 -1490 -450 0 -450 0 0 1490
0 1490 450 0 450 0 0 -1490z m986 1479 c251 -35 481 -158 629 -336 66 -79 156
-257 179 -353 108 -452 -31 -850 -385 -1100 -140 -99 -292 -163 -476 -201 -85
-18 -147 -22 -470 -26 l-373 -5 0 365 0 365 308 4 c298 3 309 4 360 27 105 47
160 151 149 283 -10 121 -78 208 -187 238 -19 5 -169 10 -332 10 l-298 0 0
370 0 370 409 0 c237 0 442 -5 487 -11z m3244 2 c0 -5 77 -183 171 -397 94
-214 248 -567 344 -784 559 -1276 750 -1710 766 -1747 l18 -43 -487 0 -487 0
-127 313 c-70 171 -213 524 -318 782 -105 259 -224 551 -265 650 -115 284
-242 596 -370 910 -65 160 -122 298 -127 308 -8 16 16 17 437 17 248 0 445 -4
445 -9z m4873 -3 c3 -7 133 -339 290 -738 296 -752 613 -1559 712 -1810 31
-80 72 -183 90 -230 18 -47 42 -109 54 -137 l21 -53 -448 0 -448 0 -354 818
c-526 1215 -710 1640 -830 1915 l-108 247 508 0 c397 0 509 -3 513 -12z m2365
-130 c-33 -79 -201 -480 -373 -893 -172 -412 -411 -984 -530 -1270 -120 -286
-222 -531 -227 -545 -11 -29 18 -98 -282 666 l-186 470 21 55 c24 62 348 933
505 1356 57 154 104 286 104 292 0 8 148 11 514 11 l513 0 -59 -142z m2189
-391 c128 -292 284 -649 347 -792 126 -287 678 -1545 707 -1612 l18 -43 -487
0 -487 0 -62 153 c-34 83 -122 301 -196 482 -74 182 -286 701 -470 1155 -185
454 -369 907 -410 1008 l-75 182 442 0 441 -1 232 -532z m3578 171 c0 -275 -3
-364 -12 -368 -7 -3 -627 -4 -1378 -2 l-1365 2 0 365 0 365 1378 0 1377 0 0
-362z m1265 -1128 l0 -1490 -450 0 -450 0 0 1490 0 1490 450 0 450 0 0 -1490z
m-21685 940 c98 -239 195 -477 216 -529 22 -51 39 -101 39 -110 0 -9 -51 -146
-113 -306 l-113 -290 237 -3 237 -2 145 -363 145 -362 -525 -5 -524 -5 -87
-225 -88 -225 -354 -1 c-195 -1 -341 1 -325 3 108 13 118 15 104 24 -11 7 -10
9 5 9 12 0 16 5 12 15 -3 8 0 15 7 15 9 0 9 2 -1 9 -17 10 -1 119 27 184 11
25 20 67 22 93 1 27 6 57 12 68 9 18 33 153 44 249 4 36 9 47 22 45 12 -2 18
13 28 75 6 44 21 97 32 120 15 30 17 43 9 48 -8 5 -9 11 -1 21 6 7 13 33 16
58 12 94 31 185 40 191 6 4 7 14 4 23 -4 9 -2 16 4 16 7 0 8 14 4 39 -5 31 -3
41 11 49 12 6 18 24 20 54 1 25 9 62 18 82 15 36 15 38 -4 43 -11 3 -20 9 -20
13 0 5 9 6 20 3 14 -4 20 0 22 13 0 11 2 25 2 32 1 7 8 17 16 22 13 8 13 10 1
10 -12 0 -12 3 -3 12 20 20 14 28 -19 28 -17 0 -28 4 -24 10 3 5 11 7 18 4 7
-2 19 6 27 20 10 20 10 31 1 55 -10 22 -10 34 -1 48 10 17 11 17 6 -2 -3 -11
0 -37 8 -59 12 -34 14 -36 19 -15 4 13 1 26 -5 30 -9 6 -8 11 1 23 7 8 10 24
6 36 -4 12 -2 20 5 20 7 0 8 6 0 19 -13 25 -13 31 0 31 6 0 10 -8 11 -17 0
-15 2 -15 8 2 5 11 4 30 0 43 -11 30 -11 35 0 27 6 -3 9 3 8 14 -1 24 33 101
46 101 5 0 7 7 4 15 -4 8 -2 17 2 19 5 3 11 20 15 37 5 25 9 29 20 20 11 -9
15 -8 20 4 3 9 2 13 -3 10 -21 -12 -20 16 3 66 12 29 25 49 28 43 3 -5 3 -3 1
4 -2 8 48 136 111 285 62 150 117 283 121 296 4 12 11 19 15 15 4 -5 88 -205
185 -444z m6475 441 c0 -5 97 -246 215 -537 118 -290 215 -535 215 -544 0 -9
-51 -147 -113 -306 l-114 -289 238 -3 237 -2 144 -357 c78 -197 145 -361 146
-365 2 -4 -233 -8 -521 -8 l-525 0 -70 -177 c-38 -98 -78 -202 -88 -231 l-19
-52 -915 2 -914 3 -383 429 c-211 236 -382 430 -380 431 1 1 90 5 197 8 264 8
403 35 595 118 l90 39 20 -23 c156 -170 770 -833 775 -835 3 -1 61 129 129
290 279 661 980 2317 1001 2366 20 46 40 68 40 43z m9355 -391 c86 -212 183
-450 216 -529 32 -79 59 -151 59 -160 0 -9 -29 -90 -65 -181 -35 -91 -86 -221
-113 -290 l-49 -125 238 -3 237 -2 145 -363 145 -362 -523 -3 -523 -2 -68
-173 c-37 -94 -77 -197 -89 -227 l-21 -55 -488 -3 c-462 -2 -488 -1 -483 15 2
10 118 286 257 613 391 924 576 1359 660 1560 72 169 223 527 273 643 11 26
24 44 28 40 4 -4 78 -181 164 -393z m3665 -1402 l0 -1078 -450 0 -450 0 0
1078 0 1077 450 0 450 0 0 -1077z m-20076 826 c3 -8 2 -12 -4 -9 -6 3 -10 10
-10 16 0 14 7 11 14 -7z m-66 -169 c-3 -3 -9 2 -12 12 -6 14 -5 15 5 6 7 -7
10 -15 7 -18z m-10 -30 c-3 -3 -9 2 -12 12 -6 14 -5 15 5 6 7 -7 10 -15 7 -18z
m-47 -102 c-12 -20 -14 -14 -5 12 4 9 9 14 11 11 3 -2 0 -13 -6 -23z m-1 -58
c0 -5 -5 -3 -10 5 -5 8 -10 20 -10 25 0 6 5 3 10 -5 5 -8 10 -19 10 -25z
m-762 -190 c-3 -3 -9 2 -12 12 -6 14 -5 15 5 6 7 -7 10 -15 7 -18z m60 -186
c-3 -20 -5 -19 -9 9 -3 20 -2 29 4 23 5 -5 7 -19 5 -32z m9 -66 c-3 -10 -5 -4
-5 12 0 17 2 24 5 18 2 -7 2 -21 0 -30z m10 -140 c-2 -16 -4 -3 -4 27 0 30 2
43 4 28 2 -16 2 -40 0 -55z m10445 26 c65 -38 218 -108 318 -143 158 -57 453
-116 580 -116 l50 0 1 -377 c0 -208 2 -386 4 -395 3 -16 -6 -18 -83 -18 -212
0 -510 53 -757 135 -153 50 -353 132 -390 159 -16 12 -10 40 96 399 62 213
117 387 121 387 4 0 31 -14 60 -31z m-10455 -136 c-2 -16 -4 -3 -4 27 0 30 2
43 4 28 2 -16 2 -40 0 -55z m-57 -230 c-11 -17 -11 -17 -6 0 3 10 6 24 7 30 0
9 2 9 5 0 3 -7 0 -20 -6 -30z m3439 -1284 c39 -38 42 -86 8 -125 -24 -27 -51
-26 -41 1 4 8 10 13 14 10 4 -3 10 12 12 33 3 20 1 39 -4 40 -4 2 -8 9 -8 16
0 33 -75 37 -680 34 l-595 -4 -80 -42 c-44 -23 -85 -42 -91 -42 -6 0 -17 -6
-23 -14 -6 -7 -25 -16 -41 -19 -16 -4 -39 -16 -50 -27 -20 -20 -26 -20 -1362
-20 l-1343 1 75 35 c246 117 261 126 256 140 -5 12 266 14 1959 14 l1963 0 31
-31z m5986 -234 c156 -377 295 -716 295 -720 0 -3 -38 -5 -83 -5 l-84 0 -30
77 -30 78 -165 3 -166 2 -32 -80 -32 -80 -84 0 c-46 0 -84 2 -84 3 0 2 68 168
151 368 82 200 171 415 196 477 29 69 49 108 54 100 4 -7 46 -107 94 -223z
m8299 -262 c102 -249 186 -455 186 -458 0 -3 -38 -5 -83 -5 l-84 0 -30 77 -30
78 -166 3 -165 2 -33 -80 -33 -80 -83 0 c-46 0 -83 2 -83 4 0 2 72 179 161
392 88 214 177 429 196 478 34 84 37 87 48 65 7 -13 96 -228 199 -476z
m-12922 434 c136 -67 233 -198 258 -350 46 -267 -128 -519 -385 -559 -143 -22
-274 22 -381 128 -148 147 -186 371 -97 562 33 70 134 177 197 209 88 45 124
53 232 50 94 -2 106 -5 176 -40z m974 4 c86 -43 184 -138 219 -213 14 -29 25
-59 25 -65 0 -9 -23 -13 -82 -13 l-83 0 -29 46 c-16 25 -52 61 -80 79 -157
104 -340 46 -425 -135 -22 -46 -26 -69 -26 -140 0 -73 4 -93 28 -142 35 -72
111 -141 179 -164 59 -19 146 -15 200 10 77 37 145 116 168 195 l8 30 -138 0
c-77 0 -143 2 -147 4 -4 3 -7 37 -5 76 l4 71 223 0 224 0 6 -44 c10 -62 -11
-173 -46 -246 -37 -79 -142 -185 -221 -223 -297 -143 -648 90 -648 430 0 132
46 253 130 341 101 106 193 143 346 139 91 -2 107 -6 170 -36z m1119 12 c87
-45 155 -144 155 -225 l0 -28 -79 0 -79 0 -6 35 c-18 96 -182 125 -250 44 -30
-35 -32 -58 -11 -99 18 -35 73 -64 207 -110 175 -59 238 -131 238 -269 0 -93
-20 -141 -79 -194 -69 -62 -121 -80 -231 -81 -83 -1 -102 2 -150 25 -95 45
-152 115 -169 204 l-8 45 78 0 79 0 14 -34 c45 -107 248 -121 294 -20 15 31
15 79 2 105 -12 22 -81 59 -160 84 -197 64 -290 158 -290 293 0 101 74 194
189 238 55 21 205 13 256 -13z m1798 -10 c94 -45 179 -128 223 -219 19 -39 34
-74 34 -78 0 -3 -38 -6 -84 -6 l-84 0 -26 44 c-68 116 -202 169 -331 131 -48
-13 -69 -28 -117 -76 -48 -49 -61 -70 -79 -130 -38 -125 -12 -243 73 -335 54
-59 107 -85 184 -92 111 -9 212 45 270 144 l26 44 85 0 c98 0 96 4 39 -105
-61 -116 -189 -211 -315 -235 -79 -15 -199 3 -279 40 -120 56 -224 192 -253
328 -16 78 -6 212 21 285 31 84 103 174 178 224 90 60 137 73 262 70 95 -2
111 -5 173 -34z m2089 16 c76 -25 132 -63 193 -131 142 -158 163 -395 51 -580
l-34 -57 49 -70 c27 -39 49 -73 49 -76 0 -3 -42 -5 -94 -5 -88 0 -95 1 -110
24 l-16 25 -57 -27 c-53 -25 -69 -27 -178 -27 -117 0 -123 1 -190 34 -124 61
-218 178 -250 312 -40 170 0 328 113 450 95 103 195 148 330 149 58 0 101 -6
144 -21z m2380 -249 c74 -107 152 -221 173 -252 21 -32 42 -58 46 -58 5 0 13
8 18 19 10 17 378 551 387 560 2 2 4 -208 4 -467 l0 -472 -80 0 -80 0 -2 216
-3 216 -100 -143 c-55 -79 -108 -156 -117 -171 -10 -15 -22 -28 -27 -28 -5 0
-62 77 -127 172 l-119 171 -3 -216 -2 -217 -80 0 -80 0 0 472 0 472 28 -40
c16 -21 90 -127 164 -234z m5845 35 c72 -104 155 -225 185 -267 29 -43 55 -78
58 -78 3 0 92 127 199 283 107 155 198 286 203 292 4 5 8 -203 8 -463 l0 -472
-80 0 -80 0 -2 217 -3 217 -119 -172 c-65 -95 -122 -172 -126 -172 -4 0 -61
77 -126 172 l-119 171 -3 -216 -2 -217 -80 0 -80 0 0 472 c0 453 1 471 18 448
9 -14 76 -110 149 -215z m1833 -44 l205 -243 5 253 5 254 78 3 77 3 0 -476 0
-476 -148 173 c-81 95 -181 213 -222 261 l-75 89 -3 -251 -2 -251 -80 0 -80 0
0 473 c1 447 2 471 18 452 9 -11 109 -130 222 -264z m1932 236 c135 -66 234
-201 259 -351 45 -267 -128 -518 -386 -558 -144 -22 -275 22 -381 128 -255
256 -159 685 181 807 38 13 74 17 151 15 93 -3 106 -6 176 -41z m-18774 -359
l2 -388 105 0 105 0 0 -75 0 -75 -185 0 -185 0 0 465 0 466 78 -3 77 -3 3
-387z m2320 -75 l2 -463 -80 0 -80 0 0 465 0 466 78 -3 77 -3 3 -462z m1350
390 l-3 -78 -102 -3 -103 -3 0 -384 0 -385 -80 0 -80 0 0 385 0 385 -100 0
-100 0 0 80 0 80 285 0 286 0 -3 -77z m280 -390 l2 -463 -80 0 -80 0 0 465 0
466 78 -3 77 -3 3 -462z m3402 137 l5 -325 28 -48 c35 -59 86 -87 160 -87 84
0 151 57 177 149 6 20 10 167 10 339 l0 302 81 0 80 0 -3 -337 -3 -338 -32
-67 c-56 -119 -155 -191 -280 -204 -151 -16 -284 61 -352 205 l-26 56 -3 343
-3 343 78 -3 78 -3 5 -325z m1140 250 l0 -80 -160 0 -160 0 0 -115 0 -115 144
0 144 0 4 -75 3 -75 -147 0 -148 0 0 -120 0 -120 160 0 160 0 0 -75 0 -75
-240 0 -240 0 0 465 0 465 240 0 240 0 0 -80z m1580 -250 l5 -325 28 -48 c35
-59 86 -87 160 -87 84 0 151 57 177 149 6 20 10 167 10 339 l0 302 81 0 80 0
-3 -337 -3 -338 -32 -67 c-56 -119 -155 -191 -280 -204 -151 -16 -284 61 -352
205 l-26 56 -3 343 -3 343 78 -3 78 -3 5 -325z m1140 250 l0 -80 -160 0 -160
0 0 -115 0 -115 144 0 144 0 4 -75 3 -75 -147 0 -148 0 0 -120 0 -120 160 0
160 0 0 -75 0 -75 -240 0 -240 0 0 465 0 465 240 0 240 0 0 -80z m368 -192
c58 -147 109 -265 112 -263 3 2 53 123 111 269 l104 266 89 0 c67 0 87 -3 83
-12 -3 -7 -54 -132 -115 -278 -60 -146 -144 -350 -187 -455 -42 -104 -80 -193
-84 -197 -5 -6 -379 886 -389 929 -3 11 14 13 84 11 l87 -3 105 -267z m1052
192 l0 -80 -160 0 -160 0 0 -115 0 -115 145 0 145 0 0 -75 0 -75 -137 -1 c-76
-1 -141 -1 -145 0 -5 0 -8 -53 -8 -119 l0 -120 160 0 160 0 0 -75 0 -75 -240
0 -240 0 0 465 0 465 240 0 240 0 0 -80z m1508 -312 l2 -388 105 0 105 0 0
-75 0 -75 -185 0 -185 0 0 465 0 466 78 -3 77 -3 3 -387z m1802 61 l5 -326 30
-48 c38 -60 82 -85 155 -85 63 0 104 21 143 72 43 56 47 94 47 416 l0 302 81
0 80 0 -3 -337 -3 -338 -32 -67 c-57 -121 -157 -193 -285 -205 -150 -14 -280
64 -347 207 l-26 55 -3 343 -3 343 78 -3 78 -3 5 -326z m1762 320 c128 -27
252 -128 309 -252 30 -64 34 -84 37 -176 9 -216 -77 -368 -258 -455 l-65 -31
-197 -3 -198 -4 0 466 0 466 160 0 c87 0 183 -5 212 -11z m-18261 -380 c47
-51 37 -114 -24 -145 l-32 -17 21 24 c21 24 42 95 25 85 -5 -3 -12 6 -15 19
-4 15 -18 30 -32 35 -30 12 -2022 12 -2102 1 -30 -4 -57 -12 -60 -18 -4 -5
-19 -13 -34 -17 -16 -3 -28 -11 -28 -16 0 -6 -6 -10 -12 -10 -24 1 -168 -75
-168 -87 0 -10 -278 -13 -1362 -12 -750 0 -1356 3 -1348 6 21 7 106 45 232
106 85 40 105 53 96 64 -9 11 406 13 2402 13 l2412 0 29 -31z m0 -410 c30 -32
38 -74 19 -108 -13 -26 -58 -53 -65 -41 -4 6 -1 9 7 8 7 -2 12 3 11 10 -2 6 2
12 8 12 6 0 8 7 5 16 -4 9 -2 13 5 8 7 -4 9 1 5 15 -3 11 -8 29 -11 39 -14 49
54 47 -1485 50 -979 2 -1457 -1 -1504 -8 -38 -6 -90 -21 -115 -34 -25 -13 -82
-42 -126 -65 -44 -22 -87 -42 -95 -43 -8 -1 12 -4 45 -8 33 -4 -531 -7 -1253
-8 l-1313 -2 -25 25 c-22 22 -26 53 -4 40 4 -3 10 -2 12 3 1 4 42 27 91 52 87
44 98 54 75 63 -7 3 1269 6 2835 6 l2849 1 29 -31z m-3098 -156 c-13 -2 -33
-2 -45 0 -13 2 -3 4 22 4 25 0 35 -2 23 -4z"/>
<path d="M20540 11861 c-25 -10 -60 -24 -79 -31 -68 -26 -230 -109 -312 -160
-147 -92 -399 -294 -399 -319 0 -12 131 -51 169 -51 88 0 136 32 260 178 89
105 240 249 339 323 50 39 92 72 92 75 0 8 -25 2 -70 -15z"/>
<path d="M21181 11453 c-32 -22 -45 -53 -51 -118 l-5 -60 -43 0 c-54 0 -86
-31 -76 -74 4 -14 10 -29 13 -33 4 -4 75 -9 158 -10 l151 -3 38 30 c63 51 63
55 8 126 -64 83 -125 144 -151 151 -12 3 -31 -1 -42 -9z"/>
<path d="M19358 10903 c-217 -328 -334 -610 -392 -949 -3 -18 -2 -34 1 -38 6
-6 87 119 206 319 56 94 59 102 47 130 -6 17 -14 37 -17 46 -3 10 18 30 68 63
142 95 189 154 189 240 0 41 -42 256 -50 256 -4 0 -27 -30 -52 -67z"/>
<path d="M23502 7962 c-173 -264 -204 -330 -182 -396 6 -20 17 -36 24 -36 7 0
38 18 68 40 89 63 151 160 183 285 16 63 21 230 6 239 -4 3 -49 -56 -99 -132z"/>
<path d="M4013 4678 c-15 -20 -25 -38 -20 -38 3 0 12 11 21 25 17 26 16 35 -1
13z"/>
<path d="M3976 4581 c-4 -5 -2 -20 3 -33 9 -21 10 -21 10 10 1 32 -3 39 -13
23z"/>
<path d="M12357 1475 c-26 -63 -47 -119 -47 -125 0 -6 38 -10 95 -10 73 0 95
3 95 14 0 11 -86 225 -94 233 -1 1 -23 -49 -49 -112z"/>
<path d="M20547 1475 c-26 -63 -47 -119 -47 -124 0 -5 43 -9 95 -10 65 -1 95
2 95 10 0 11 -75 201 -89 227 -4 7 -26 -35 -54 -103z"/>
<path d="M7610 1809 c-133 -39 -232 -199 -216 -350 8 -80 34 -137 91 -198 65
-69 128 -95 221 -89 115 8 198 69 252 187 38 82 37 196 -2 276 -33 67 -88 125
-146 155 -47 24 -149 34 -200 19z"/>
<path d="M13641 1809 c-77 -23 -143 -82 -188 -169 -24 -48 -28 -66 -28 -145 0
-79 4 -97 28 -147 52 -106 160 -178 267 -178 43 0 130 28 130 41 0 6 -43 70
-95 144 -52 73 -95 136 -95 139 0 3 42 6 93 6 l93 0 64 -87 64 -88 20 45 c31
69 28 187 -6 262 -64 139 -213 215 -347 177z"/>
<path d="M25565 1803 c-61 -21 -141 -97 -175 -168 -20 -41 -24 -65 -24 -140 0
-108 19 -159 89 -234 65 -69 128 -95 221 -89 115 8 198 69 252 187 37 80 36
196 -1 272 -37 76 -77 120 -137 153 -67 36 -153 43 -225 19z"/>
<path d="M24570 1489 l0 -312 94 5 c112 6 165 28 226 94 62 67 84 124 84 214
0 93 -31 169 -98 234 -59 56 -116 76 -223 76 l-83 0 0 -311z"/>
</g>
</svg>
